# xmcd
#
# Track frame offsets:
#	150
#	14010
#	29890
#	44796
#	57376
#	74882
#	90062
#	104237
#	120068
#	142389
#	160234
#
# Disc length: 2349 seconds
#
# Revision: 0
# Processed by: cddbd v1.5.1PL0 Copyright (c) Steve Scherf et al.
# Submitted via: dBpowerAMP V4.0
#
DISCID=ab092b0b
DTITLE=Shelly Fairchild - Ride
DYEAR=1900
DGENRE=Country
TTITLE0=Kiss Me
TTITLE1=Ready To Fall
TTITLE2=Tiny Town
TTITLE3=You Don't Lie Here Anymore
TTITLE4=Down Into Muddy Water
TTITLE5=Ride
TTITLE6=Time Machine
TTITLE7=I'm Goin' Back
TTITLE8=Fear Of Flying
TTITLE9=Eight Crazy Hours (In The Story Of Love)
TTITLE10=I Want To Love You
EXTD=
EXTT0=
EXTT1=
EXTT2=
EXTT3=
EXTT4=
EXTT5=
EXTT6=
EXTT7=
EXTT8=
EXTT9=
EXTT10=
PLAYORDER=
